Coordinates
version=1
nRows=13
nColumns=36
inDegrees=yes

Units are S.I. units (second, meters, Newtons, ...)
If the header above contains a line with 'inDegrees', this indicates whether rotational values are in degrees (yes) or radians (no).

endheader
time	pelvis_tilt	pelvis_list	pelvis_rotation	pelvis_tx	pelvis_ty	pelvis_tz	hip_flexion_r	hip_adduction_r	hip_rotation_r	knee_angle_r	knee_angle_r_beta	ankle_angle_r	subtalar_angle_r	mtp_angle_r	hip_flexion_l	hip_adduction_l	hip_rotation_l	knee_angle_l	knee_angle_l_beta	ankle_angle_l	subtalar_angle_l	mtp_angle_l	lumbar_extension	lumbar_bending	lumbar_rotation	arm_flex_r	arm_add_r	arm_rot_r	elbow_flex_r	pro_sup_r	arm_flex_l	arm_add_l	arm_rot_l	elbow_flex_l	pro_sup_l
      3.64166670	     -1.95136571	      0.44097077	      3.10790809	      0.38284123	      0.98716087	     -0.02320278	     -0.73083729	     -5.03997068	     -6.50243858	      2.33482380	      0.04075036	      1.34104221	    -19.59452788	     -7.49999987	      0.51273262	     -5.64257934	     -4.16824092	      1.60325354	      0.02798205	      3.37451217	     -9.46628315	     -7.49999987	     -5.80656432	      3.46636317	      1.68903229	     -8.30838964	    -28.68294152	    -54.34548160	     60.34714198	     55.13149020	    -19.39325521	    -30.46867632	    -19.40641092	     15.53561203	     51.40015712
      3.64583330	     -1.87400880	      0.43209899	      3.04027821	      0.38146470	      0.98180373	     -0.02230673	     -0.81219583	     -4.99665504	     -6.44376922	      2.27656108	      0.03973349	      1.26814477	    -19.96632116	     -7.49999987	      0.38071827	     -5.66395618	     -4.36739024	      1.52621977	      0.02663756	      3.64692456	     -9.40739217	     -7.49999987	     -5.86478407	      3.38404449	      1.94384554	     -8.13376063	    -28.50266409	    -54.31588142	     60.21047829	     54.40515038	    -18.76045426	    -30.44383912	    -19.56534268	     15.77002689	     50.47629371
      3.65000000	     -1.76911371	      0.44604339	      3.00536278	      0.38079167	      0.98454043	     -0.02215689	     -0.92870188	     -4.98751351	     -6.49498549	      2.23089528	      0.03893647	      1.33300775	    -20.02513498	     -7.49999987	      0.23886216	     -5.63905921	     -4.37192090	      1.46729894	      0.02560920	      3.79807990	     -9.47368694	     -7.49999987	     -5.94927251	      3.40632360	      2.24566693	     -8.00086684	    -28.09916459	    -53.97698130	     59.78144343	     53.00722295	    -17.50661055	    -30.59047495	    -15.55939213	     15.14433230	     46.20145416
      3.65416670	     -1.70553790	      0.44079119	      2.96749512	      0.38093147	      0.98731082	     -0.02204646	     -0.99689003	     -4.94950655	     -6.41394682	      2.17697794	      0.03799543	      1.33573611	    -20.26555930	     -7.49999987	      0.14172680	     -5.64735168	     -4.48341200	      1.43764756	      0.02509168	      3.97277040	     -9.43675958	     -7.49999987	     -6.01617653	      3.28856293	      2.21368698	     -7.43180090	    -27.80925758	    -53.82112153	     59.87913529	     55.04215363	    -16.99932771	    -30.32043659	    -17.56098786	     15.25396737	     50.86959457
      3.65833330	     -1.68395103	      0.46322361	      2.91912767	      0.38134400	      0.98346344	     -0.02277699	     -1.02411034	     -4.96320105	     -6.42286280	      2.11909738	      0.03698523	      1.36735019	    -20.35255136	     -7.49999987	      0.07373951	     -5.60132392	     -4.46986773	      1.37988037	      0.02408346	      4.05692005	     -9.52573612	     -7.49999987	     -6.02436032	      3.36127796	      2.12056316	     -7.03705673	    -27.68172499	    -53.56471651	     60.54047485	     55.08342389	    -16.96237321	    -30.18252885	    -18.43574832	     15.53306088	     50.99170430
      3.66250000	     -1.67799202	      0.47737298	      2.93299127	      0.38164308	      0.98199763	     -0.02358081	     -1.03500398	     -4.97182908	     -6.48453281	      2.11094882	      0.03684301	      1.40759097	    -20.44664666	     -7.49999987	      0.06197890	     -5.56339977	     -4.45296923	      1.38174263	      0.02411596	      4.33498144	     -9.38990793	     -7.49999987	     -6.05211742	      3.32201482	      2.09997568	     -6.92845439	    -27.53527249	    -53.43903730	     60.91489732	     55.19836519	    -16.56152992	    -29.82093057	    -19.43034965	     15.40215894	     51.59800713
      3.66666670	     -1.64114464	      0.47555260	      2.93396690	      0.38143473	      0.98239490	     -0.02237951	     -1.08372583	     -4.95371122	     -6.40431737	      2.08321158	      0.03635890	      1.48831961	    -20.60551213	     -7.49999987	     -0.00329439	     -5.56624364	     -4.53682833	      1.37201447	      0.02394617	      4.52086133	     -9.39734116	     -7.49999987	     -6.03145600	      3.37775943	      2.44127252	     -7.15113093	    -27.25039644	    -53.57442774	     61.51500220	     52.37745967	    -15.37305576	    -30.02739244	    -15.14336700	     14.31260512	     47.54134638
      3.67083330	     -1.65751594	      0.47842118	      2.95859872	      0.38217510	      0.98735848	     -0.02200966	     -1.10753979	     -4.93793069	     -6.35083817	      2.06094924	      0.03597035	      1.52663155	    -20.60097694	     -7.49999987	     -0.03496937	     -5.55979332	     -4.55018447	      1.34303304	      0.02344035	      4.57868510	     -9.42294271	     -7.49999987	     -5.94372285	      3.32991634	      2.40162008	     -6.95253943	    -26.73782476	    -53.32992496	     61.51921327	     52.39424867	    -14.83621908	    -29.62621973	    -15.08870914	     14.51611518	     47.54263935
      3.67500000	     -1.49742172	      0.50357197	      2.90326609	      0.38020574	      0.98949300	     -0.02087907	     -1.26588119	     -4.91839846	     -6.23815170	      2.03751241	      0.03556130	      1.60967576	    -20.67884863	     -7.49999987	     -0.24293040	     -5.55185898	     -4.67328026	      1.30262399	      0.02273508	      4.72108899	     -9.20756468	     -7.49999987	     -6.25129375	      3.25185821	      2.37831128	     -6.43739088	    -26.31577620	    -52.85243108	     61.50219254	     53.49937743	    -14.10863455	    -29.26914111	    -16.00578274	     14.37586474	     48.76831518
      3.67916670	     -1.38394551	      0.54881825	      2.91702685	      0.38145925	      0.99138756	     -0.02190163	     -1.42961833	     -4.95037053	     -6.26661841	      1.95639520	      0.03414554	      1.61603347	    -20.65310202	     -7.49999987	     -0.40976390	     -5.51066774	     -4.69504865	      1.24035337	      0.02164825	      4.70178959	     -9.25737380	     -7.49999987	     -6.41243297	      3.18761658	      2.43075100	     -5.99528770	    -25.91762904	    -52.73172648	     61.29834978	     54.84695765	    -13.37284793	    -28.78744774	    -17.10153420	     14.45219627	     50.78621581
      3.68333330	     -1.31924044	      0.59647258	      2.89240411	      0.38048443	      0.99212335	     -0.02115262	     -1.51277140	     -4.98066804	     -6.34731524	      1.91414386	      0.03340811	      1.55716299	    -20.57955486	     -7.49999987	     -0.51052979	     -5.46685199	     -4.75864396	      1.18271749	      0.02064231	      4.72961072	     -9.07877763	     -7.49999987	     -6.54163376	      3.07607471	      2.74718667	     -5.80539059	    -25.46904004	    -52.80558721	     61.40170207	     53.64405407	    -12.19766580	    -28.76540033	    -12.83206908	     13.68448944	     45.56064232
      3.68750000	     -1.15443909	      0.65301846	      2.90878401	      0.37966252	      0.99442364	     -0.02045828	     -1.69773396	     -5.01867055	     -6.41816688	      1.84306186	      0.03216750	      1.54458975	    -20.53737787	     -7.49999987	     -0.69062309	     -5.41437553	     -4.83939965	      1.13363202	      0.01978561	      4.65693140	     -9.04505882	     -7.49999987	     -6.82016321	      2.89362457	      2.71995149	     -5.29380906	    -24.96494001	    -52.48711840	     61.20997696	     54.82791221	    -11.55015947	    -28.23988458	    -13.93175784	     13.73532857	     48.08057542
      3.69166670	     -1.01934490	      0.70218375	      2.95078735	      0.37901995	      0.99324671	     -0.01961225	     -1.84580150	     -5.03232658	     -6.41911343	      1.78750079	      0.03119777	      1.52943145	    -20.54292988	     -7.49999987	     -0.82847373	     -5.37691447	     -4.95412106	      1.10103935	      0.01921676	      4.71556055	     -8.90782788	     -7.49999987	     -7.02819653	      2.72350477	      2.88881947	     -4.99087285	    -24.47580675	    -52.33876772	     61.25295716	     54.36990558	    -10.61011266	    -28.10631073	    -10.93618379	     13.39700229	     44.76736234
